# xmcd
#
# Track frame offsets:
#	150
#	24572
#	40967
#	58655
#	76857
#	103115
#	116205
#	137172
#	153670
#	172392
#	190232
#	208292
#
# Disc length: 3081 seconds
#
# Revision: 3
# Processed by: cddbd v1.5.2PL0 Copyright (c) Steve Scherf et al.
# Submitted via: EasyCDDAExtractor 16.0.8.1
#
DISCID=b40c070c
DTITLE=Blues Band - Fat City
DYEAR=1991
DGENRE=Blues
TTITLE0=Fat city
TTITLE1=Longing for you baby
TTITLE2=Help me
TTITLE3=I can't tell it all
TTITLE4=Down to the river
TTITLE5=Country blues No. 48
TTITLE6=Cold emotions, frozen hearts
TTITLE7=Killing me by degrees
TTITLE8=The duisburg blues
TTITLE9=So lonely
TTITLE10=Too bad you're no good
TTITLE11=Long time gone
EXTD=
EXTT0=
EXTT1=
EXTT2=
EXTT3=
EXTT4=
EXTT5=
EXTT6=
EXTT7=
EXTT8=
EXTT9=
EXTT10=
EXTT11=
PLAYORDER=
